<svg t="1742280839907" class="icon" viewBox="0 0 1024 1024" version="1.1" xmlns="http://www.w3.org/2000/svg" p-id="2673" width="256" height="256"><path d="M0.1625 511.8315a511.8305 511.8305 0 1 0 1023.661 0 511.8305 511.8305 0 1 0-1023.661 0z" fill="#FFD630" p-id="2674"></path><path d="M1023.8355 502.939509l-204.6678-203.679801-2.967997 142.377861-133.47987-134.139869L455.312055 517.110495 232.518273 294.315713l0.657999 17.139983-17.137983-17.139983 0.657999 14.171986-14.171986-14.171986 0.658 17.797982-17.137984-17.139983-6.589993 83.711918-1.975998 14.829986 30.31997 26.035974 0.33 312.109695 7.249993 6.261994-0.33 0.33 285.744721 285.744721h11.205989c282.778724 0 511.8345-229.055776 511.8345-511.8345l0.002-9.223991z" fill="#F5BE18" p-id="2675"></path><path d="M804.667714 295.633711l2.965997 215.54379v1.975998h-5.273995c-1.975998 0-3.295997 1.317999-3.295996 2.967997 0 1.647998 1.647998 2.965997 3.295996 2.965997h4.943996l-8.897992 183.245821s-1.317999 19.773981 23.069978 25.047976c0 0 18.127982-4.613995 21.091979-23.399977 2.637997-16.477984-7.581993-152.925851-9.88799-184.89382h6.919993c1.975998 0 3.295997-1.317999 3.295997-2.965997 0-1.647998-1.647998-2.967997-3.295997-2.967997h-7.249993v-1.317999s-3.625996-16.807984 21.421979-24.717976c0 0-12.853987-135.455868-22.741978-166.105837s-25.377975-32.299968-26.035974-25.377976h-0.326z" fill="#FFFFFF" p-id="2676"></path><path d="M807.633711 513.155499h-5.273995c-1.975998 0-3.295997 1.317999-3.295996 2.967997 0 1.647998 1.647998 2.965997 3.295996 2.965997h4.943996l-8.897992 183.245821s-1.317999 19.773981 23.069978 25.047976c0 0 18.127982-4.613995 21.091979-23.399977 2.637997-16.477984-7.581993-152.925851-9.88799-184.89382h6.919993c1.975998 0 3.295997-1.317999 3.295997-2.965997 0-1.647998-1.647998-2.967997-3.295997-2.967997h-31.965969z" fill="#E84F4F" p-id="2677"></path><path d="M216.368289 294.315713s4.613995 73.495928 4.613995 89.313912h9.227991l-0.987999-88.325913s0.987999-3.295997 3.295997-0.658c0 0 11.863988 81.075921 11.863988 91.293911 0 0 1.975998 20.10398-0.657999 27.355973-2.637997 7.249993-27.685973 23.399977-27.685973 29.331972l-0.987999 42.515958c5.273995 1.647998 8.897991 5.601995 8.897991 9.557991 0 4.283996-2.965997 7.581993-8.569991 9.557991l8.239992 14.829985s4.613995 146.991856 7.249993 173.68783c-5.601995 28.343972-18.785982 39.549961-21.751979 39.549962-6.589994-0.33-19.445981-21.091979-21.751979-37.901963l8.569992-174.67583 7.249993-14.829985s-0.987999-0.33-2.305998-0.987999c-3.955996-1.975998-6.589994-5.273995-6.589994-8.897991 0-3.955996 3.295997-7.581993 7.909993-9.227991 0-2.965997-0.657999-41.857959-0.987999-42.515959-1.647998-9.557991-23.069977-20.10398-27.355974-26.365974-4.283996-6.589994-1.975998-30.64997-1.975998-30.64997 0-9.88799 11.863988-91.293911 11.863989-91.293911 2.305998-2.637997 3.295997 0.657999 3.295996 0.657999l-0.987999 88.985913h8.239992c0-15.159985 6.261994-89.643912 6.261994-89.643912 2.305998-2.637997 3.295997 0 3.295997 0l3.955996 89.313913h4.283996l1.975998-89.313913s1.317999-2.637997 3.295997 0l-0.991999-0.663999z" fill="#FFFFFF" p-id="2678"></path><path d="M215.38029 503.927508l7.909992 14.501986s4.613995 146.991856 7.249993 173.68783c-5.601995 28.343972-18.785982 39.549961-21.751979 39.549961-6.589994-0.33-19.445981-21.091979-21.751979-37.901963l8.569992-174.675829 7.249993-14.829985h12.523988v-0.332z" fill="#E84F4F" p-id="2679"></path><path d="M252.946253 511.8315a263.668743 263.668743 0 1 0 527.337485 0 263.668743 263.668743 0 1 0-527.337485 0z" fill="#FF873D" p-id="2680"></path><path d="M266.47124 511.8315a250.143756 250.143756 0 1 0 500.287511 0 250.143756 250.143756 0 1 0-500.287511 0z" fill="#FFFFFF" p-id="2681"></path><path d="M320.515187 511.8315a196.099808 196.099808 0 1 0 392.199617 0 196.099808 196.099808 0 1 0-392.199617 0z" fill="#FFE8D1" p-id="2682"></path></svg>